<svg xmlns="http://www.w3.org/2000/svg" xmlns:xlink="http://www.w3.org/1999/xlink" width="1366" zoomAndPan="magnify" viewBox="0 0 1024.5 576" height="768" preserveAspectRatio="xMidYMid meet" version="1.0"><defs><clipPath id="4377531c88"><path d="M 124 339 L 341 339 L 341 570.738281 L 124 570.738281 Z M 124 339 " clip-rule="nonzero"/></clipPath><clipPath id="87f0032cb3"><path d="M 375 5.515625 L 456 5.515625 L 456 135 L 375 135 Z M 375 5.515625 " clip-rule="nonzero"/></clipPath><clipPath id="ab81a48380"><path d="M 6.191406 357 L 87 357 L 87 486 L 6.191406 486 Z M 6.191406 357 " clip-rule="nonzero"/></clipPath><clipPath id="321ccedc0e"><path d="M 841.691406 393.613281 L 1018.605469 393.613281 L 1018.605469 570.527344 L 841.691406 570.527344 Z M 841.691406 393.613281 " clip-rule="nonzero"/></clipPath></defs><path fill="#0084bd" d="M 433.867188 286.617188 C 428.207031 295.332031 405.9375 294.199219 376.929688 283.21875 L 390.300781 262.628906 C 398.753906 265.957031 406.933594 268.605469 414.644531 270.460938 C 423.242188 272.527344 430.917969 273.554688 437.609375 273.554688 C 439.296875 273.554688 440.917969 273.484375 442.480469 273.355469 Z M 315.824219 250.195312 L 329.375 229.328125 C 332.480469 231.496094 335.652344 233.636719 338.882812 235.734375 C 352.109375 244.320312 365.554688 251.722656 378.578125 257.65625 L 365.132812 278.363281 C 352.550781 272.777344 339.050781 265.527344 325.320312 256.609375 C 322.066406 254.492188 318.898438 252.351562 315.824219 250.195312 Z M 265.472656 203.71875 L 278.605469 183.5 C 288.957031 196.332031 302.9375 209.527344 319.238281 221.921875 L 305.703125 242.753906 C 288.347656 229.417969 274.65625 215.78125 265.472656 203.71875 Z M 253.765625 169.652344 L 262.382812 156.386719 C 264.148438 161.453125 266.914062 166.894531 270.679688 172.671875 L 257.890625 192.371094 C 252.277344 182.457031 250.6875 174.394531 253.765625 169.652344 Z M 290.808594 132.484375 C 296.453125 132.484375 303.230469 133.386719 310.839844 135.21875 C 332.304688 140.375 357.824219 152.109375 382.699219 168.265625 C 407.578125 184.417969 428.675781 202.960938 442.113281 220.46875 C 453.890625 235.808594 458.421875 248.800781 454.25 255.222656 C 450.082031 261.644531 436.371094 262.789062 417.570312 258.265625 C 396.109375 253.109375 370.589844 241.371094 345.710938 225.21875 C 320.835938 209.0625 299.734375 190.519531 286.296875 173.007812 C 274.523438 157.671875 269.984375 144.683594 274.15625 138.257812 C 276.640625 134.433594 282.503906 132.484375 290.808594 132.484375 Z M 452.066406 212.835938 C 437.78125 194.226562 415.574219 174.660156 389.53125 157.746094 C 363.492188 140.835938 336.582031 128.503906 313.769531 123.023438 C 288.484375 116.945312 271.148438 119.855469 263.636719 131.429688 L 243.25 162.824219 C 226.800781 188.148438 269.738281 235.46875 318.492188 267.132812 C 351.804688 288.765625 390.691406 304.945312 417.226562 304.945312 C 429.523438 304.945312 439.175781 301.472656 444.382812 293.445312 L 464.773438 262.054688 C 472.289062 250.480469 467.894531 233.460938 452.066406 212.835938 " fill-opacity="1" fill-rule="nonzero"/><path fill="#0084bd" d="M 111.867188 289.0625 L 100.515625 285.359375 C 105.34375 281.832031 110.660156 276.621094 116.425781 269.121094 C 120.496094 263.824219 124.453125 257.78125 128.242188 251.164062 L 146.820312 257.21875 C 133.144531 280.316406 119.242188 291.476562 111.867188 289.0625 Z M 82.554688 182.910156 C 99.15625 131.96875 123.699219 104.101562 135.941406 104.101562 C 136.699219 104.101562 137.410156 104.203125 138.066406 104.417969 C 149.363281 108.101562 154.296875 146.453125 136.660156 200.550781 C 128.757812 224.808594 118.035156 246.441406 106.480469 261.480469 C 96.6875 274.21875 86.96875 280.949219 81.148438 279.046875 C 75.3125 277.148438 71.4375 265.984375 71.03125 249.921875 C 70.554688 230.96875 74.644531 207.167969 82.554688 182.910156 Z M 177.515625 129.84375 L 160.058594 124.15625 C 159.519531 119.238281 158.628906 114.71875 157.355469 110.707031 L 168.792969 114.433594 C 172.769531 115.726562 175.835938 121.328125 177.515625 129.84375 Z M 178.90625 143.492188 C 178.90625 143.515625 178.90625 143.535156 178.910156 143.558594 C 179.25 157.042969 177.261719 172.984375 173.253906 189.78125 L 154.449219 183.65625 C 158.292969 167.617188 160.546875 151.613281 160.667969 137.550781 Z M 152.933594 246.023438 L 134.222656 239.921875 C 139.589844 229.066406 144.464844 217.074219 148.582031 204.4375 C 149.515625 201.578125 150.398438 198.695312 151.238281 195.800781 L 170.042969 201.933594 C 169.210938 204.796875 168.328125 207.679688 167.386719 210.566406 C 162.996094 224.023438 158.054688 235.875 152.933594 246.023438 Z M 179.308594 214.453125 C 187.648438 188.882812 191.957031 163.589844 191.445312 143.246094 C 190.722656 114.394531 180.839844 105.171875 172.675781 102.511719 L 141.976562 92.503906 C 141.96875 92.5 141.964844 92.5 141.957031 92.496094 C 116.636719 84.265625 86.308594 130.921875 70.628906 179.027344 C 62.296875 204.601562 57.980469 229.894531 58.492188 250.238281 C 59.214844 279.085938 69.097656 288.3125 77.257812 290.972656 C 77.261719 290.972656 77.269531 290.972656 77.28125 290.976562 L 107.984375 300.984375 C 109.960938 301.628906 111.96875 301.941406 113.992188 301.941406 C 137.949219 301.941406 164.851562 258.804688 179.308594 214.453125 " fill-opacity="1" fill-rule="nonzero"/><g clip-path="url(#4377531c88)"><path fill="#0084bd" d="M 273.109375 506.042969 L 248.558594 484.976562 C 251.273438 482.066406 253.953125 479.0625 256.59375 475.996094 C 259.238281 472.902344 261.792969 469.796875 264.246094 466.683594 L 288.800781 487.746094 C 286.367188 490.84375 283.8125 493.949219 281.148438 497.058594 C 278.480469 500.167969 275.796875 503.164062 273.109375 506.042969 Z M 176.90625 554.109375 L 161.476562 540.875 C 167.457031 540.113281 173.976562 538.304688 180.929688 535.453125 L 204.007812 555.253906 C 191.964844 559.113281 182.363281 558.789062 176.90625 554.109375 Z M 217.039062 549.898438 L 193.285156 529.527344 C 199.757812 525.996094 206.351562 521.773438 212.953125 516.941406 L 237.207031 537.746094 C 230.179688 542.699219 223.402344 546.753906 217.039062 549.898438 Z M 247.449219 530.007812 L 223.058594 509.085938 C 228.6875 504.445312 234.292969 499.386719 239.792969 493.984375 L 264.3125 515.019531 C 258.652344 520.539062 253.003906 525.539062 247.449219 530.007812 Z M 141.210938 483.285156 C 148.484375 461.277344 163.453125 436.371094 183.359375 413.171875 C 217.617188 373.238281 254.359375 352.316406 275.308594 352.316406 C 280.441406 352.316406 284.632812 353.574219 287.597656 356.117188 C 302.664062 369.046875 289.730469 418.101562 247.074219 467.824219 C 227.167969 491.027344 204.832031 509.613281 184.1875 520.15625 C 165.515625 529.679688 150.441406 531.398438 142.832031 524.875 C 135.21875 518.34375 134.632812 503.183594 141.210938 483.285156 Z M 296.335938 477.6875 L 271.816406 456.65625 C 276.363281 450.332031 280.492188 444.027344 284.179688 437.800781 L 308.585938 458.742188 C 305.011719 464.910156 300.933594 471.253906 296.335938 477.6875 Z M 314.679688 447.441406 L 290.394531 426.609375 C 294.191406 419.25 297.324219 412.078125 299.777344 405.199219 L 323.625 425.652344 C 321.484375 432.425781 318.507812 439.746094 314.679688 447.441406 Z M 326.933594 411.972656 L 303.695312 392.039062 C 305.410156 384.796875 306.207031 378.042969 306.046875 371.949219 L 321.671875 385.351562 C 327.136719 390.039062 328.914062 399.476562 326.933594 411.972656 Z M 329.84375 375.832031 L 295.765625 346.597656 C 272.554688 326.699219 219.007812 352.351562 173.839844 405.003906 C 152.894531 429.417969 137.078125 455.824219 129.300781 479.347656 C 120.921875 504.691406 122.828125 524.238281 134.664062 534.390625 L 168.742188 563.628906 C 174.058594 568.1875 180.964844 570.355469 189.003906 570.355469 C 216.042969 570.355469 255.847656 545.808594 290.667969 505.222656 C 335.828125 452.570312 353.039062 395.738281 329.84375 375.832031 " fill-opacity="1" fill-rule="nonzero"/></g><g clip-path="url(#87f0032cb3)"><path fill="#0084bd" d="M 415.171875 45.351562 C 418.761719 54.613281 424.410156 63.773438 433.285156 69.855469 C 424.410156 75.9375 418.761719 85.101562 415.171875 94.363281 C 411.578125 85.101562 405.9375 75.9375 397.0625 69.855469 C 405.9375 63.773438 411.578125 54.613281 415.171875 45.351562 Z M 375.171875 70.148438 C 375.175781 70.261719 375.179688 70.378906 375.191406 70.492188 C 375.199219 70.574219 375.214844 70.660156 375.226562 70.742188 C 375.246094 70.867188 375.261719 70.992188 375.289062 71.113281 C 375.292969 71.140625 375.296875 71.171875 375.300781 71.195312 C 375.308594 71.226562 375.316406 71.25 375.328125 71.28125 C 375.402344 71.601562 375.496094 71.914062 375.617188 72.214844 C 375.636719 72.253906 375.65625 72.292969 375.675781 72.335938 C 375.792969 72.613281 375.929688 72.875 376.085938 73.128906 C 376.101562 73.160156 376.121094 73.195312 376.140625 73.230469 C 376.308594 73.488281 376.492188 73.726562 376.695312 73.957031 C 376.734375 74.003906 376.773438 74.054688 376.8125 74.097656 C 377.015625 74.316406 377.234375 74.523438 377.46875 74.714844 C 377.507812 74.75 377.550781 74.78125 377.589844 74.8125 C 377.839844 75.003906 378.101562 75.175781 378.375 75.332031 C 378.394531 75.34375 378.414062 75.351562 378.425781 75.359375 C 378.6875 75.503906 378.964844 75.625 379.246094 75.730469 C 379.292969 75.746094 379.34375 75.769531 379.390625 75.78125 C 379.617188 75.859375 379.847656 75.929688 380.085938 75.980469 C 408.566406 82.226562 408.898438 127.1875 408.902344 127.890625 C 408.902344 127.902344 408.902344 127.929688 408.902344 127.941406 C 408.902344 128.0625 408.914062 128.183594 408.921875 128.308594 C 408.925781 128.390625 408.925781 128.472656 408.9375 128.550781 C 408.949219 128.722656 408.980469 128.886719 409.011719 129.054688 C 409.019531 129.09375 409.019531 129.132812 409.027344 129.171875 C 409.398438 130.980469 410.546875 132.507812 412.109375 133.386719 C 412.132812 133.394531 412.148438 133.410156 412.171875 133.421875 C 412.300781 133.492188 412.433594 133.550781 412.566406 133.613281 C 412.621094 133.636719 412.667969 133.664062 412.726562 133.6875 C 412.828125 133.734375 412.9375 133.769531 413.050781 133.808594 C 413.132812 133.839844 413.21875 133.875 413.304688 133.898438 C 413.390625 133.925781 413.484375 133.941406 413.570312 133.96875 C 413.683594 134 413.792969 134.03125 413.90625 134.054688 C 413.984375 134.070312 414.066406 134.078125 414.144531 134.089844 C 414.269531 134.113281 414.398438 134.132812 414.523438 134.152344 C 414.613281 134.160156 414.710938 134.160156 414.800781 134.164062 C 414.917969 134.167969 415.039062 134.183594 415.15625 134.183594 C 415.160156 134.183594 415.167969 134.183594 415.171875 134.183594 C 415.175781 134.183594 415.183594 134.183594 415.191406 134.183594 C 415.285156 134.183594 415.375 134.167969 415.472656 134.167969 C 415.585938 134.160156 415.707031 134.160156 415.820312 134.148438 C 415.902344 134.140625 415.976562 134.121094 416.054688 134.113281 C 416.1875 134.09375 416.316406 134.078125 416.445312 134.050781 C 416.503906 134.039062 416.5625 134.023438 416.621094 134.003906 C 416.765625 133.972656 416.910156 133.9375 417.042969 133.894531 C 417.089844 133.882812 417.128906 133.863281 417.171875 133.851562 C 417.324219 133.800781 417.476562 133.746094 417.625 133.6875 C 417.640625 133.675781 417.660156 133.664062 417.675781 133.660156 C 419.339844 132.933594 420.625 131.511719 421.164062 129.761719 C 421.164062 129.757812 421.164062 129.753906 421.167969 129.75 C 421.226562 129.558594 421.273438 129.367188 421.316406 129.171875 C 421.324219 129.125 421.328125 129.078125 421.339844 129.039062 C 421.363281 128.878906 421.390625 128.71875 421.40625 128.550781 C 421.417969 128.472656 421.417969 128.390625 421.421875 128.308594 C 421.429688 128.183594 421.441406 128.0625 421.441406 127.941406 C 421.441406 127.929688 421.441406 127.902344 421.441406 127.890625 C 421.441406 127.1875 421.777344 82.226562 450.253906 75.980469 C 450.492188 75.929688 450.722656 75.859375 450.949219 75.78125 C 451 75.769531 451.046875 75.746094 451.09375 75.730469 C 451.378906 75.625 451.652344 75.503906 451.910156 75.359375 C 451.929688 75.351562 451.949219 75.34375 451.964844 75.332031 C 452.242188 75.175781 452.5 75.003906 452.75 74.8125 C 452.789062 74.78125 452.832031 74.75 452.871094 74.714844 C 453.105469 74.523438 453.324219 74.316406 453.527344 74.097656 C 453.570312 74.054688 453.605469 74.003906 453.644531 73.957031 C 453.847656 73.726562 454.035156 73.488281 454.199219 73.230469 C 454.21875 73.195312 454.238281 73.160156 454.261719 73.125 C 454.414062 72.875 454.546875 72.613281 454.664062 72.335938 C 454.6875 72.292969 454.703125 72.253906 454.722656 72.214844 C 454.84375 71.914062 454.9375 71.601562 455.011719 71.28125 C 455.023438 71.25 455.035156 71.226562 455.039062 71.195312 C 455.046875 71.171875 455.046875 71.140625 455.050781 71.113281 C 455.078125 70.992188 455.101562 70.867188 455.113281 70.742188 C 455.125 70.660156 455.144531 70.574219 455.152344 70.492188 C 455.160156 70.378906 455.164062 70.261719 455.171875 70.148438 C 455.175781 70.050781 455.183594 69.957031 455.183594 69.855469 C 455.183594 69.757812 455.175781 69.664062 455.171875 69.5625 C 455.164062 69.449219 455.160156 69.332031 455.152344 69.21875 C 455.144531 69.136719 455.125 69.054688 455.113281 68.972656 C 455.101562 68.84375 455.078125 68.722656 455.050781 68.597656 C 455.046875 68.570312 455.046875 68.539062 455.039062 68.515625 C 455.027344 68.453125 455.007812 68.402344 454.992188 68.34375 C 454.964844 68.226562 454.933594 68.117188 454.898438 68.003906 C 454.871094 67.90625 454.835938 67.808594 454.800781 67.710938 C 454.769531 67.621094 454.734375 67.53125 454.695312 67.441406 C 454.652344 67.335938 454.605469 67.226562 454.550781 67.121094 C 454.515625 67.050781 454.480469 66.976562 454.441406 66.90625 C 454.382812 66.792969 454.320312 66.683594 454.25 66.578125 C 454.214844 66.511719 454.175781 66.449219 454.132812 66.394531 C 454.0625 66.285156 453.996094 66.179688 453.914062 66.078125 C 453.867188 66.019531 453.820312 65.953125 453.769531 65.894531 C 453.695312 65.804688 453.621094 65.71875 453.542969 65.636719 C 453.480469 65.5625 453.414062 65.496094 453.351562 65.425781 C 453.28125 65.363281 453.210938 65.292969 453.136719 65.226562 C 453.054688 65.148438 452.964844 65.078125 452.878906 65.003906 C 452.820312 64.957031 452.753906 64.910156 452.691406 64.859375 C 452.59375 64.777344 452.484375 64.707031 452.375 64.632812 C 452.320312 64.59375 452.265625 64.558594 452.207031 64.523438 C 452.089844 64.457031 451.972656 64.386719 451.851562 64.320312 C 451.796875 64.289062 451.738281 64.265625 451.675781 64.234375 C 451.554688 64.171875 451.433594 64.117188 451.308594 64.0625 C 451.242188 64.039062 451.171875 64.011719 451.105469 63.984375 C 450.984375 63.941406 450.863281 63.898438 450.742188 63.863281 C 450.660156 63.835938 450.574219 63.816406 450.496094 63.796875 C 450.414062 63.773438 450.335938 63.75 450.253906 63.734375 C 421.777344 57.488281 421.441406 12.527344 421.441406 11.820312 C 421.441406 11.808594 421.441406 11.78125 421.441406 11.773438 C 421.441406 11.644531 421.429688 11.527344 421.421875 11.40625 C 421.417969 11.324219 421.417969 11.242188 421.40625 11.160156 C 421.390625 10.988281 421.363281 10.828125 421.335938 10.664062 C 421.324219 10.625 421.324219 10.582031 421.316406 10.542969 C 420.863281 8.320312 419.230469 6.523438 417.101562 5.832031 C 417.082031 5.828125 417.066406 5.824219 417.050781 5.816406 C 416.890625 5.769531 416.734375 5.726562 416.574219 5.695312 C 416.53125 5.683594 416.492188 5.671875 416.449219 5.660156 C 416.3125 5.632812 416.171875 5.613281 416.035156 5.597656 C 415.964844 5.585938 415.894531 5.570312 415.820312 5.5625 C 415.707031 5.550781 415.585938 5.550781 415.46875 5.546875 C 415.371094 5.542969 415.28125 5.53125 415.191406 5.53125 C 415.183594 5.53125 415.175781 5.53125 415.171875 5.53125 C 415.167969 5.53125 415.160156 5.53125 415.15625 5.53125 C 415.027344 5.53125 414.90625 5.542969 414.785156 5.550781 C 414.703125 5.554688 414.609375 5.554688 414.527344 5.5625 C 414.378906 5.582031 414.230469 5.601562 414.089844 5.628906 C 414.027344 5.640625 413.964844 5.644531 413.910156 5.660156 C 413.757812 5.6875 413.613281 5.726562 413.46875 5.773438 C 413.414062 5.785156 413.359375 5.792969 413.308594 5.8125 C 413.167969 5.855469 413.039062 5.90625 412.902344 5.960938 C 412.847656 5.980469 412.789062 6 412.734375 6.019531 C 412.617188 6.074219 412.507812 6.128906 412.394531 6.1875 C 412.324219 6.21875 412.25 6.25 412.183594 6.285156 C 412.09375 6.332031 412.011719 6.390625 411.921875 6.441406 C 411.835938 6.496094 411.746094 6.546875 411.664062 6.605469 C 411.601562 6.648438 411.539062 6.695312 411.480469 6.738281 C 411.378906 6.8125 411.273438 6.886719 411.179688 6.964844 C 411.136719 7 411.101562 7.035156 411.0625 7.074219 C 410.949219 7.167969 410.835938 7.269531 410.730469 7.375 C 410.707031 7.390625 410.695312 7.414062 410.675781 7.433594 C 410.550781 7.5625 410.433594 7.6875 410.324219 7.824219 C 410.316406 7.832031 410.3125 7.839844 410.304688 7.847656 C 409.929688 8.304688 409.625 8.820312 409.390625 9.367188 C 409.390625 9.378906 409.386719 9.386719 409.378906 9.390625 C 409.304688 9.574219 409.238281 9.757812 409.179688 9.945312 C 409.175781 9.964844 409.171875 9.992188 409.164062 10.011719 C 409.109375 10.1875 409.066406 10.363281 409.027344 10.539062 C 409.019531 10.59375 409.015625 10.644531 409.007812 10.691406 C 408.980469 10.84375 408.949219 11 408.9375 11.160156 C 408.925781 11.242188 408.925781 11.324219 408.921875 11.40625 C 408.914062 11.527344 408.902344 11.644531 408.902344 11.773438 C 408.902344 11.78125 408.902344 11.808594 408.902344 11.820312 C 408.898438 12.527344 408.566406 57.488281 380.085938 63.734375 C 379.972656 63.753906 379.867188 63.789062 379.761719 63.820312 C 379.730469 63.828125 379.695312 63.835938 379.664062 63.847656 C 379.480469 63.898438 379.308594 63.960938 379.132812 64.027344 C 379.128906 64.027344 379.125 64.027344 379.117188 64.03125 C 378.363281 64.332031 377.691406 64.769531 377.125 65.304688 C 377.113281 65.316406 377.09375 65.332031 377.082031 65.34375 C 376.960938 65.460938 376.84375 65.582031 376.734375 65.710938 C 376.703125 65.746094 376.667969 65.785156 376.636719 65.820312 C 376.546875 65.925781 376.460938 66.035156 376.375 66.152344 C 376.332031 66.210938 376.289062 66.265625 376.25 66.332031 C 376.179688 66.433594 376.113281 66.53125 376.054688 66.632812 C 376.011719 66.710938 375.960938 66.785156 375.917969 66.863281 C 375.871094 66.964844 375.820312 67.0625 375.769531 67.164062 C 375.730469 67.246094 375.6875 67.335938 375.652344 67.421875 C 375.609375 67.527344 375.570312 67.628906 375.53125 67.738281 C 375.5 67.820312 375.46875 67.910156 375.445312 67.996094 C 375.40625 68.113281 375.375 68.226562 375.347656 68.347656 C 375.332031 68.40625 375.3125 68.457031 375.300781 68.515625 C 375.296875 68.539062 375.292969 68.570312 375.289062 68.597656 C 375.261719 68.722656 375.246094 68.84375 375.226562 68.972656 C 375.214844 69.054688 375.199219 69.136719 375.191406 69.21875 C 375.179688 69.332031 375.175781 69.449219 375.171875 69.5625 C 375.164062 69.664062 375.15625 69.757812 375.15625 69.855469 C 375.15625 69.957031 375.164062 70.050781 375.171875 70.148438 " fill-opacity="1" fill-rule="nonzero"/></g><g clip-path="url(#ab81a48380)"><path fill="#0084bd" d="M 46.242188 445.84375 C 42.652344 436.574219 37.007812 427.417969 28.132812 421.335938 C 37.007812 415.25 42.652344 406.09375 46.242188 396.828125 C 49.832031 406.09375 55.480469 415.25 64.355469 421.335938 C 55.480469 427.417969 49.832031 436.574219 46.242188 445.84375 Z M 86.246094 421.042969 C 86.242188 420.929688 86.238281 420.8125 86.222656 420.703125 C 86.214844 420.617188 86.203125 420.53125 86.191406 420.449219 C 86.171875 420.324219 86.15625 420.203125 86.128906 420.074219 C 86.125 420.050781 86.121094 420.023438 86.117188 419.992188 C 86.101562 419.9375 86.082031 419.882812 86.066406 419.828125 C 86.035156 419.707031 86.011719 419.59375 85.976562 419.480469 C 85.945312 419.382812 85.914062 419.292969 85.878906 419.203125 C 85.84375 419.105469 85.804688 419.007812 85.765625 418.914062 C 85.726562 418.8125 85.679688 418.714844 85.632812 418.613281 C 85.59375 418.535156 85.554688 418.453125 85.511719 418.378906 C 85.457031 418.273438 85.398438 418.167969 85.335938 418.070312 C 85.292969 418 85.25 417.929688 85.199219 417.859375 C 85.136719 417.757812 85.070312 417.667969 85 417.570312 C 84.949219 417.503906 84.890625 417.433594 84.835938 417.363281 C 84.769531 417.28125 84.699219 417.203125 84.628906 417.128906 C 84.554688 417.050781 84.488281 416.972656 84.410156 416.898438 C 84.351562 416.835938 84.285156 416.773438 84.222656 416.71875 C 84.128906 416.632812 84.039062 416.554688 83.941406 416.472656 C 83.890625 416.429688 83.832031 416.390625 83.78125 416.347656 C 83.667969 416.261719 83.554688 416.183594 83.4375 416.105469 C 83.394531 416.074219 83.347656 416.042969 83.296875 416.015625 C 83.171875 415.9375 83.046875 415.863281 82.914062 415.796875 C 82.867188 415.769531 82.820312 415.746094 82.769531 415.722656 C 82.640625 415.65625 82.503906 415.59375 82.367188 415.539062 C 82.3125 415.515625 82.257812 415.5 82.199219 415.472656 C 82.070312 415.425781 81.9375 415.378906 81.800781 415.339844 C 81.734375 415.316406 81.664062 415.300781 81.59375 415.28125 C 81.507812 415.257812 81.421875 415.230469 81.328125 415.207031 C 52.851562 408.96875 52.519531 364.003906 52.515625 363.304688 C 52.515625 363.285156 52.515625 363.265625 52.515625 363.25 C 52.515625 363.128906 52.5 363.007812 52.492188 362.890625 C 52.488281 362.804688 52.488281 362.71875 52.480469 362.636719 C 52.46875 362.476562 52.4375 362.320312 52.410156 362.160156 C 52.402344 362.113281 52.398438 362.066406 52.386719 362.019531 C 52.347656 361.828125 52.300781 361.640625 52.246094 361.457031 C 52.242188 361.449219 52.242188 361.4375 52.234375 361.425781 C 51.875 360.25 51.179688 359.226562 50.253906 358.460938 C 50.25 358.457031 50.246094 358.453125 50.242188 358.449219 C 50.109375 358.339844 49.972656 358.234375 49.828125 358.140625 C 49.804688 358.121094 49.78125 358.105469 49.757812 358.085938 C 49.640625 358.003906 49.515625 357.929688 49.386719 357.859375 C 49.339844 357.832031 49.289062 357.796875 49.238281 357.769531 C 49.136719 357.710938 49.03125 357.667969 48.925781 357.617188 C 48.847656 357.582031 48.769531 357.539062 48.691406 357.503906 C 48.605469 357.46875 48.511719 357.4375 48.429688 357.40625 C 48.320312 357.367188 48.222656 357.324219 48.113281 357.292969 C 48.039062 357.269531 47.964844 357.253906 47.890625 357.234375 C 47.765625 357.199219 47.640625 357.164062 47.511719 357.136719 C 47.441406 357.125 47.367188 357.117188 47.296875 357.101562 C 47.164062 357.082031 47.027344 357.054688 46.886719 357.042969 C 46.800781 357.035156 46.714844 357.035156 46.621094 357.027344 C 46.503906 357.019531 46.382812 357.007812 46.261719 357.007812 C 46.257812 357.007812 46.25 357.007812 46.242188 357.007812 C 46.238281 357.007812 46.230469 357.007812 46.226562 357.007812 C 46.105469 357.007812 45.984375 357.019531 45.855469 357.027344 C 45.773438 357.035156 45.6875 357.035156 45.597656 357.042969 C 45.453125 357.054688 45.304688 357.082031 45.160156 357.113281 C 45.097656 357.121094 45.039062 357.125 44.976562 357.136719 C 44.828125 357.167969 44.683594 357.207031 44.542969 357.25 C 44.488281 357.265625 44.433594 357.273438 44.378906 357.289062 C 44.246094 357.332031 44.109375 357.386719 43.976562 357.4375 C 43.917969 357.460938 43.863281 357.476562 43.804688 357.5 C 43.6875 357.550781 43.578125 357.609375 43.464844 357.664062 C 43.394531 357.699219 43.320312 357.730469 43.257812 357.769531 C 43.164062 357.816406 43.082031 357.871094 42.996094 357.921875 C 42.910156 357.972656 42.820312 358.027344 42.734375 358.082031 C 42.671875 358.125 42.613281 358.175781 42.550781 358.21875 C 42.449219 358.292969 42.347656 358.367188 42.25 358.445312 C 42.210938 358.480469 42.171875 358.519531 42.132812 358.554688 C 42.019531 358.648438 41.90625 358.75 41.804688 358.855469 C 41.785156 358.875 41.765625 358.898438 41.746094 358.914062 C 41.625 359.039062 41.511719 359.167969 41.398438 359.300781 C 41.394531 359.3125 41.382812 359.320312 41.375 359.328125 C 41.003906 359.785156 40.695312 360.300781 40.460938 360.847656 C 40.460938 360.855469 40.457031 360.859375 40.457031 360.871094 C 40.378906 361.046875 40.3125 361.234375 40.253906 361.421875 C 40.246094 361.449219 40.242188 361.46875 40.234375 361.492188 C 40.1875 361.667969 40.140625 361.839844 40.097656 362.019531 C 40.089844 362.070312 40.085938 362.121094 40.078125 362.171875 C 40.050781 362.328125 40.019531 362.480469 40.007812 362.636719 C 40 362.71875 40 362.804688 39.996094 362.890625 C 39.988281 363.007812 39.972656 363.128906 39.972656 363.25 C 39.972656 363.265625 39.972656 363.285156 39.972656 363.304688 C 39.972656 364.003906 39.636719 408.96875 11.160156 415.207031 C 11.050781 415.234375 10.945312 415.269531 10.835938 415.292969 C 10.800781 415.308594 10.761719 415.316406 10.726562 415.328125 C 10.554688 415.378906 10.386719 415.4375 10.222656 415.503906 C 10.203125 415.507812 10.1875 415.511719 10.175781 415.515625 C 9.992188 415.589844 9.816406 415.667969 9.644531 415.761719 C 9.644531 415.761719 9.644531 415.761719 9.636719 415.761719 C 9.460938 415.851562 9.285156 415.953125 9.121094 416.0625 C 8.953125 416.164062 8.796875 416.277344 8.644531 416.394531 C 8.636719 416.40625 8.625 416.414062 8.617188 416.417969 C 8.476562 416.53125 8.339844 416.648438 8.210938 416.769531 C 8.183594 416.792969 8.164062 416.820312 8.140625 416.839844 C 8.027344 416.949219 7.917969 417.0625 7.8125 417.179688 C 7.773438 417.222656 7.738281 417.265625 7.699219 417.3125 C 7.613281 417.410156 7.53125 417.515625 7.453125 417.625 C 7.40625 417.691406 7.359375 417.75 7.316406 417.816406 C 7.253906 417.910156 7.1875 418.011719 7.125 418.113281 C 7.082031 418.191406 7.039062 418.265625 6.996094 418.347656 C 6.9375 418.441406 6.890625 418.542969 6.84375 418.648438 C 6.804688 418.730469 6.765625 418.8125 6.730469 418.894531 C 6.683594 419.003906 6.644531 419.113281 6.601562 419.222656 C 6.574219 419.304688 6.542969 419.386719 6.515625 419.46875 C 6.480469 419.589844 6.445312 419.710938 6.421875 419.828125 C 6.40625 419.882812 6.386719 419.9375 6.371094 419.992188 C 6.367188 420.023438 6.363281 420.050781 6.359375 420.074219 C 6.332031 420.203125 6.316406 420.324219 6.296875 420.449219 C 6.285156 420.53125 6.273438 420.617188 6.265625 420.703125 C 6.25 420.8125 6.246094 420.929688 6.242188 421.042969 C 6.238281 421.144531 6.230469 421.238281 6.230469 421.335938 C 6.230469 421.429688 6.238281 421.53125 6.242188 421.625 C 6.246094 421.738281 6.25 421.855469 6.265625 421.96875 C 6.273438 422.054688 6.285156 422.140625 6.296875 422.222656 C 6.316406 422.34375 6.332031 422.472656 6.359375 422.59375 C 6.363281 422.625 6.367188 422.648438 6.371094 422.675781 C 6.382812 422.707031 6.394531 422.730469 6.398438 422.757812 C 6.472656 423.082031 6.570312 423.394531 6.691406 423.695312 C 6.707031 423.738281 6.730469 423.773438 6.746094 423.816406 C 6.863281 424.089844 7 424.351562 7.15625 424.609375 C 7.179688 424.640625 7.195312 424.679688 7.214844 424.710938 C 7.378906 424.964844 7.566406 425.207031 7.765625 425.4375 C 7.804688 425.484375 7.84375 425.53125 7.882812 425.574219 C 8.089844 425.796875 8.304688 426.003906 8.542969 426.195312 C 8.585938 426.230469 8.625 426.257812 8.664062 426.289062 C 8.910156 426.480469 9.167969 426.660156 9.445312 426.8125 C 9.464844 426.820312 9.484375 426.828125 9.503906 426.84375 C 9.765625 426.984375 10.035156 427.105469 10.324219 427.207031 C 10.371094 427.226562 10.414062 427.25 10.460938 427.265625 C 10.6875 427.34375 10.917969 427.410156 11.160156 427.460938 C 39.636719 433.703125 39.972656 478.664062 39.972656 479.371094 C 39.972656 479.382812 39.972656 479.402344 39.972656 479.417969 C 39.972656 479.539062 39.988281 479.660156 39.996094 479.78125 C 40 479.867188 40 479.949219 40.007812 480.03125 C 40.019531 480.191406 40.050781 480.351562 40.078125 480.511719 C 40.085938 480.554688 40.089844 480.601562 40.097656 480.644531 C 40.140625 480.835938 40.191406 481.023438 40.242188 481.210938 C 40.246094 481.21875 40.253906 481.234375 40.253906 481.242188 C 40.613281 482.417969 41.308594 483.441406 42.234375 484.207031 C 42.238281 484.210938 42.242188 484.214844 42.246094 484.21875 C 42.378906 484.328125 42.515625 484.433594 42.660156 484.535156 C 42.683594 484.546875 42.707031 484.570312 42.730469 484.585938 C 42.851562 484.664062 42.972656 484.738281 43.101562 484.8125 C 43.152344 484.839844 43.199219 484.875 43.246094 484.898438 C 43.351562 484.957031 43.457031 485.003906 43.5625 485.050781 C 43.640625 485.089844 43.71875 485.128906 43.800781 485.164062 C 43.882812 485.199219 43.976562 485.230469 44.058594 485.261719 C 44.167969 485.300781 44.265625 485.34375 44.375 485.378906 C 44.449219 485.402344 44.527344 485.414062 44.597656 485.433594 C 44.722656 485.46875 44.851562 485.503906 44.976562 485.53125 C 45.046875 485.546875 45.121094 485.554688 45.191406 485.566406 C 45.324219 485.585938 45.460938 485.613281 45.597656 485.625 C 45.6875 485.636719 45.777344 485.636719 45.863281 485.640625 C 45.988281 485.648438 46.105469 485.65625 46.226562 485.65625 C 46.230469 485.65625 46.238281 485.65625 46.242188 485.65625 C 46.25 485.65625 46.257812 485.65625 46.261719 485.65625 C 46.386719 485.65625 46.503906 485.648438 46.628906 485.640625 C 46.714844 485.636719 46.804688 485.636719 46.886719 485.625 C 47.035156 485.609375 47.183594 485.582031 47.328125 485.5625 C 47.390625 485.546875 47.449219 485.542969 47.511719 485.53125 C 47.660156 485.5 47.804688 485.460938 47.945312 485.421875 C 48.003906 485.40625 48.054688 485.390625 48.109375 485.378906 C 48.246094 485.335938 48.378906 485.28125 48.511719 485.230469 C 48.570312 485.207031 48.628906 485.191406 48.6875 485.164062 C 48.800781 485.117188 48.910156 485.0625 49.023438 485.003906 C 49.09375 484.96875 49.164062 484.9375 49.230469 484.902344 C 49.324219 484.855469 49.40625 484.800781 49.492188 484.746094 C 49.578125 484.695312 49.671875 484.644531 49.753906 484.585938 C 49.816406 484.542969 49.875 484.496094 49.9375 484.449219 C 50.035156 484.378906 50.140625 484.304688 50.238281 484.226562 C 50.277344 484.191406 50.316406 484.15625 50.355469 484.117188 C 50.46875 484.019531 50.582031 483.917969 50.6875 483.816406 C 50.707031 483.796875 50.726562 483.773438 50.742188 483.753906 C 50.863281 483.628906 50.980469 483.5 51.089844 483.371094 C 51.097656 483.359375 51.105469 483.347656 51.113281 483.335938 C 51.488281 482.878906 51.792969 482.371094 52.027344 481.816406 C 52.03125 481.8125 52.03125 481.804688 52.035156 481.800781 C 52.109375 481.617188 52.175781 481.433594 52.234375 481.246094 C 52.242188 481.222656 52.246094 481.199219 52.253906 481.175781 C 52.304688 481.007812 52.347656 480.828125 52.386719 480.648438 C 52.398438 480.597656 52.402344 480.546875 52.410156 480.496094 C 52.4375 480.34375 52.46875 480.1875 52.480469 480.03125 C 52.488281 479.949219 52.488281 479.867188 52.492188 479.78125 C 52.5 479.660156 52.515625 479.539062 52.515625 479.417969 C 52.515625 479.402344 52.515625 479.382812 52.515625 479.371094 C 52.519531 478.664062 52.851562 433.703125 81.328125 427.460938 C 81.570312 427.410156 81.800781 427.34375 82.027344 427.265625 C 82.074219 427.25 82.121094 427.226562 82.171875 427.207031 C 82.453125 427.105469 82.726562 426.984375 82.984375 426.84375 C 83.007812 426.828125 83.023438 426.820312 83.042969 426.8125 C 83.320312 426.660156 83.578125 426.480469 83.824219 426.289062 C 83.863281 426.257812 83.902344 426.230469 83.945312 426.195312 C 84.183594 426.003906 84.398438 425.796875 84.605469 425.574219 C 84.644531 425.53125 84.683594 425.484375 84.722656 425.4375 C 84.921875 425.207031 85.109375 424.964844 85.273438 424.710938 C 85.292969 424.675781 85.3125 424.640625 85.332031 424.609375 C 85.488281 424.351562 85.625 424.089844 85.742188 423.816406 C 85.757812 423.777344 85.78125 423.738281 85.796875 423.695312 C 85.917969 423.394531 86.015625 423.082031 86.089844 422.757812 C 86.097656 422.730469 86.109375 422.707031 86.117188 422.675781 C 86.121094 422.648438 86.125 422.625 86.128906 422.59375 C 86.15625 422.472656 86.171875 422.34375 86.191406 422.222656 C 86.203125 422.140625 86.214844 422.054688 86.222656 421.96875 C 86.238281 421.855469 86.242188 421.738281 86.246094 421.625 C 86.25 421.53125 86.257812 421.429688 86.257812 421.335938 C 86.257812 421.238281 86.25 421.144531 86.246094 421.042969 " fill-opacity="1" fill-rule="nonzero"/></g><g clip-path="url(#321ccedc0e)"><path fill="#0084bd" d="M 919.894531 393.613281 Z M 908.933594 446.863281 C 909.613281 447.136719 910.351562 447.351562 911.148438 447.503906 L 910.179688 449.910156 C 909.664062 451.199219 910.289062 452.667969 911.582031 453.183594 C 912.871094 453.703125 914.339844 453.074219 914.859375 451.785156 L 916.308594 448.175781 L 916.816406 448.242188 C 919.648438 448.601562 922.566406 448.046875 924.976562 446.871094 C 927.511719 445.636719 929.570312 443.675781 930.527344 441.296875 C 930.785156 440.660156 930.953125 440 931.039062 439.34375 L 931.039062 439.335938 C 931.265625 437.515625 930.8125 435.78125 929.800781 434.308594 C 928.855469 432.941406 927.4375 431.820312 925.652344 431.105469 C 924.75 430.742188 923.742188 430.480469 922.644531 430.339844 L 917.769531 429.722656 C 917.125 429.644531 916.535156 429.488281 916.003906 429.277344 C 915.160156 428.9375 914.511719 428.449219 914.128906 427.890625 C 913.816406 427.429688 913.667969 426.894531 913.738281 426.347656 L 913.75 426.335938 C 913.773438 426.105469 913.835938 425.871094 913.929688 425.636719 C 914.398438 424.472656 915.546875 423.441406 917.015625 422.722656 C 918.613281 421.949219 920.507812 421.582031 922.332031 421.808594 L 924.628906 422.101562 C 924.722656 422.117188 924.8125 422.128906 924.902344 422.136719 L 927.207031 422.429688 C 927.847656 422.507812 928.441406 422.664062 928.972656 422.875 C 929.816406 423.214844 930.457031 423.703125 930.847656 424.261719 C 931.160156 424.71875 931.308594 425.253906 931.234375 425.804688 C 931.210938 426.023438 931.144531 426.261719 931.042969 426.515625 C 930.523438 427.804688 931.152344 429.273438 932.441406 429.789062 C 933.734375 430.308594 935.203125 429.679688 935.71875 428.386719 C 935.976562 427.746094 936.144531 427.09375 936.226562 426.4375 L 936.226562 426.429688 C 936.457031 424.609375 936.003906 422.875 934.988281 421.40625 C 934.046875 420.039062 932.628906 418.917969 930.84375 418.199219 C 930.160156 417.925781 929.421875 417.710938 928.628906 417.558594 L 929.59375 415.148438 C 930.113281 413.859375 929.484375 412.390625 928.195312 411.875 C 926.902344 411.355469 925.433594 411.984375 924.917969 413.273438 L 923.460938 416.882812 L 922.941406 416.816406 C 920.117188 416.464844 917.207031 417.011719 914.792969 418.1875 C 912.253906 419.425781 910.199219 421.382812 909.238281 423.761719 C 908.972656 424.421875 908.800781 425.082031 908.730469 425.726562 C 908.5 427.554688 908.960938 429.28125 909.96875 430.753906 C 910.910156 432.121094 912.332031 433.242188 914.117188 433.960938 C 915.015625 434.324219 916.027344 434.582031 917.121094 434.71875 L 922 435.335938 C 922.640625 435.414062 923.234375 435.570312 923.761719 435.78125 C 924.609375 436.121094 925.25 436.609375 925.636719 437.171875 C 925.953125 437.625 926.097656 438.160156 926.027344 438.714844 C 926 438.929688 925.933594 439.167969 925.832031 439.421875 C 925.363281 440.589844 924.214844 441.617188 922.746094 442.335938 C 921.148438 443.113281 919.25 443.480469 917.433594 443.25 L 915.136719 442.960938 C 915.039062 442.945312 914.945312 442.929688 914.847656 442.925781 L 912.554688 442.636719 C 911.914062 442.554688 911.320312 442.402344 910.789062 442.1875 C 909.945312 441.847656 909.304688 441.363281 908.914062 440.800781 C 908.601562 440.34375 908.457031 439.808594 908.527344 439.257812 C 908.554688 439.039062 908.621094 438.800781 908.722656 438.550781 C 909.238281 437.257812 908.609375 435.789062 907.320312 435.273438 C 906.027344 434.753906 904.558594 435.382812 904.042969 436.675781 C 903.785156 437.316406 903.617188 437.96875 903.535156 438.625 L 903.535156 438.632812 C 903.304688 440.457031 903.761719 442.1875 904.773438 443.65625 C 905.726562 445.023438 907.152344 446.144531 908.933594 446.863281 Z M 919.894531 403.75 Z M 853.640625 432.527344 C 853.640625 424.15625 861.375 416.78125 873.875 411.636719 C 885.703125 406.761719 901.976562 403.746094 919.894531 403.746094 C 937.8125 403.746094 954.085938 406.761719 965.914062 411.636719 C 978.414062 416.78125 986.148438 424.15625 986.148438 432.527344 C 986.148438 440.898438 978.414062 448.273438 965.914062 453.417969 C 954.085938 458.292969 937.8125 461.308594 919.894531 461.308594 C 901.976562 461.308594 885.703125 458.292969 873.875 453.417969 C 861.375 448.273438 853.640625 440.898438 853.640625 432.527344 Z M 858.691406 432.527344 C 858.691406 438.65625 865.226562 444.414062 875.789062 448.761719 C 887.023438 453.394531 902.613281 456.253906 919.894531 456.253906 C 937.175781 456.253906 952.765625 453.390625 964 448.761719 C 974.5625 444.414062 981.097656 438.65625 981.097656 432.527344 C 981.097656 426.398438 974.5625 420.640625 964 416.289062 C 952.765625 411.660156 937.175781 408.800781 919.894531 408.800781 C 902.613281 408.800781 887.023438 411.664062 875.789062 416.289062 C 865.226562 420.640625 858.691406 426.398438 858.691406 432.527344 Z M 1018.558594 468.378906 L 1018.558594 495.707031 C 1018.558594 502.066406 1015.59375 508.03125 1010.316406 513.285156 C 1010.203125 513.425781 1010.070312 513.558594 1009.925781 513.671875 C 1008.84375 514.71875 1007.679688 515.730469 1006.417969 516.714844 L 1006.421875 531.5625 C 1006.421875 542.664062 997.402344 552.554688 982.820312 559.5625 C 968.796875 566.308594 949.488281 570.480469 928.226562 570.480469 C 906.960938 570.480469 887.652344 566.304688 873.628906 559.5625 C 859.046875 552.550781 850.027344 542.664062 850.027344 531.5625 L 850.027344 504.238281 C 850.027344 504.238281 850.027344 504.238281 850.027344 504.234375 C 850.027344 500.222656 851.21875 496.355469 853.429688 492.710938 C 855.074219 490.003906 857.285156 487.4375 859.988281 485.035156 C 856.253906 482.832031 853.003906 480.414062 850.324219 477.820312 C 850.183594 477.703125 850.054688 477.578125 849.9375 477.4375 C 844.660156 472.183594 841.691406 466.21875 841.691406 459.863281 L 841.691406 432.527344 C 841.691406 421.429688 850.71875 411.542969 865.296875 404.523438 C 879.320312 397.785156 898.628906 393.613281 919.894531 393.613281 C 941.160156 393.613281 960.46875 397.785156 974.488281 404.527344 C 989.070312 411.542969 998.089844 421.433594 998.089844 432.53125 L 998.089844 441.984375 C 1004.230469 445.296875 1009.203125 449.15625 1012.699219 453.410156 C 1016.480469 458.003906 1018.558594 463.054688 1018.558594 468.378906 Z M 998.089844 447.765625 L 998.089844 454 C 1000.597656 455.921875 1002.609375 458.003906 1004.039062 460.210938 C 1005.71875 462.792969 1006.613281 465.535156 1006.613281 468.382812 C 1006.613281 476.59375 999.179688 483.839844 987.113281 488.96875 C 975.722656 493.808594 960.003906 496.894531 942.582031 497.132812 C 942.472656 497.148438 942.355469 497.164062 942.242188 497.179688 C 942.03125 497.210938 941.816406 497.242188 941.605469 497.273438 C 940.71875 497.398438 939.828125 497.515625 938.929688 497.628906 C 938.863281 497.636719 938.796875 497.644531 938.730469 497.652344 C 938.726562 497.652344 938.722656 497.652344 938.71875 497.652344 C 938.703125 497.652344 938.691406 497.660156 938.671875 497.660156 C 938.558594 497.671875 938.4375 497.683594 938.324219 497.699219 C 937.527344 497.792969 936.730469 497.878906 935.925781 497.964844 C 935.792969 497.976562 935.664062 497.988281 935.53125 498.003906 C 934.613281 498.097656 933.695312 498.175781 932.769531 498.25 C 932.683594 498.261719 932.59375 498.269531 932.503906 498.273438 C 932.367188 498.28125 932.226562 498.296875 932.089844 498.304688 C 931.785156 498.328125 931.484375 498.347656 931.179688 498.371094 C 931.039062 498.378906 930.894531 498.386719 930.753906 498.398438 C 927.203125 498.640625 923.578125 498.769531 919.894531 498.769531 C 916.238281 498.769531 912.636719 498.640625 909.113281 498.402344 C 908.933594 498.386719 908.746094 498.378906 908.570312 498.367188 C 908.292969 498.347656 908.011719 498.324219 907.734375 498.304688 C 907.585938 498.289062 907.429688 498.28125 907.28125 498.269531 L 906.597656 498.210938 C 906.429688 498.199219 906.257812 498.183594 906.089844 498.167969 L 905.757812 498.140625 C 905.84375 498.164062 905.921875 498.183594 906.007812 498.203125 C 906.761719 498.390625 907.523438 498.578125 908.296875 498.753906 C 908.296875 498.753906 908.300781 498.753906 908.300781 498.753906 C 908.828125 498.875 909.363281 498.992188 909.894531 499.109375 C 909.964844 499.121094 910.03125 499.136719 910.097656 499.152344 C 913.917969 499.972656 917.914062 500.640625 922.046875 501.144531 C 922.074219 501.148438 922.097656 501.148438 922.125 501.152344 C 927.957031 501.855469 934.0625 502.234375 940.363281 502.234375 C 946.636719 502.234375 952.726562 501.863281 958.539062 501.160156 C 958.597656 501.152344 958.652344 501.148438 958.707031 501.144531 C 961.152344 500.847656 963.554688 500.492188 965.894531 500.082031 C 967.488281 499.804688 969.058594 499.492188 970.597656 499.167969 C 970.695312 499.140625 970.792969 499.117188 970.894531 499.105469 C 970.898438 499.105469 970.90625 499.101562 970.910156 499.101562 C 972.550781 498.746094 974.160156 498.363281 975.734375 497.949219 C 978.113281 497.332031 980.410156 496.648438 982.621094 495.910156 C 982.75 495.855469 982.886719 495.808594 983.027344 495.773438 C 986.515625 494.59375 989.777344 493.277344 992.78125 491.835938 C 993.417969 491.53125 994.039062 491.214844 994.648438 490.902344 C 994.769531 490.824219 994.902344 490.757812 995.039062 490.699219 C 999.574219 488.316406 1003.40625 485.648438 1006.386719 482.773438 C 1006.507812 482.628906 1006.644531 482.496094 1006.789062 482.378906 C 1011.089844 478.082031 1013.5 473.335938 1013.5 468.375 C 1013.5 464.257812 1011.835938 460.277344 1008.808594 456.597656 C 1006.1875 453.410156 1002.554688 450.433594 998.089844 447.765625 Z M 990.671875 449.257812 C 990.589844 449.351562 990.5 449.441406 990.414062 449.53125 L 990.414062 468.738281 C 990.566406 468.492188 990.707031 468.246094 990.839844 467.996094 C 990.929688 467.835938 991.011719 467.671875 991.097656 467.507812 C 991.148438 467.402344 991.207031 467.300781 991.253906 467.191406 C 991.363281 466.976562 991.464844 466.765625 991.554688 466.546875 C 991.578125 466.503906 991.597656 466.460938 991.617188 466.414062 C 991.71875 466.183594 991.8125 465.949219 991.90625 465.722656 C 991.917969 465.679688 991.9375 465.644531 991.949219 465.605469 C 992.039062 465.375 992.121094 465.140625 992.199219 464.90625 C 992.210938 464.863281 992.230469 464.820312 992.242188 464.769531 C 992.316406 464.542969 992.382812 464.320312 992.445312 464.09375 C 992.464844 464.03125 992.476562 463.972656 992.492188 463.914062 C 992.550781 463.699219 992.605469 463.488281 992.652344 463.277344 C 992.671875 463.195312 992.6875 463.113281 992.703125 463.03125 C 992.742188 462.835938 992.78125 462.644531 992.816406 462.445312 C 992.835938 462.332031 992.847656 462.226562 992.867188 462.117188 C 992.890625 461.945312 992.917969 461.773438 992.9375 461.601562 C 992.953125 461.449219 992.960938 461.304688 992.976562 461.152344 C 992.988281 461.015625 993.003906 460.878906 993.011719 460.738281 C 993.023438 460.480469 993.035156 460.226562 993.035156 459.96875 C 993.035156 459.933594 993.039062 459.902344 993.039062 459.867188 L 993.039062 446.480469 C 992.984375 446.554688 992.925781 446.625 992.871094 446.695312 C 992.699219 446.917969 992.519531 447.144531 992.335938 447.371094 C 992.25 447.476562 992.164062 447.578125 992.074219 447.683594 C 991.898438 447.898438 991.714844 448.113281 991.527344 448.320312 C 991.433594 448.425781 991.335938 448.539062 991.238281 448.644531 C 991.058594 448.847656 990.867188 449.054688 990.671875 449.257812 Z M 935.375 492.949219 C 935.554688 492.933594 935.734375 492.910156 935.910156 492.890625 L 935.910156 470.636719 C 933.511719 470.882812 931.074219 471.074219 928.597656 471.207031 L 928.597656 493.480469 C 929.417969 493.4375 930.242188 493.382812 931.058594 493.324219 C 931.1875 493.316406 931.320312 493.308594 931.449219 493.292969 C 931.765625 493.273438 932.085938 493.246094 932.402344 493.21875 C 933.296875 493.148438 934.179688 493.070312 935.0625 492.980469 C 935.167969 492.972656 935.269531 492.957031 935.375 492.949219 Z M 908.632812 493.320312 C 909.476562 493.382812 910.332031 493.4375 911.183594 493.484375 L 911.183594 471.210938 C 908.710938 471.078125 906.269531 470.886719 903.875 470.640625 L 903.875 492.894531 C 904.019531 492.910156 904.167969 492.933594 904.3125 492.945312 C 904.464844 492.957031 904.613281 492.976562 904.761719 492.992188 C 905.609375 493.078125 906.460938 493.152344 907.320312 493.222656 C 907.707031 493.253906 908.09375 493.285156 908.480469 493.316406 C 908.53125 493.3125 908.582031 493.316406 908.632812 493.320312 Z M 973.792969 503.625 L 973.792969 525.777344 C 976.320312 525.164062 978.761719 524.484375 981.105469 523.742188 L 981.105469 501.679688 C 978.746094 502.390625 976.3125 503.039062 973.792969 503.625 Z M 986.152344 500.027344 L 986.152344 522.003906 C 988.484375 521.125 990.695312 520.183594 992.78125 519.179688 C 993.011719 519.066406 993.238281 518.953125 993.460938 518.84375 L 993.460938 497.078125 C 991.160156 498.132812 988.71875 499.117188 986.152344 500.027344 Z M 968.742188 504.6875 C 966.359375 505.144531 963.917969 505.546875 961.425781 505.886719 L 961.425781 528.125 C 963.921875 527.769531 966.363281 527.359375 968.742188 526.886719 Z M 956.378906 528.746094 L 956.378906 506.492188 C 953.980469 506.734375 951.539062 506.929688 949.070312 507.0625 L 949.070312 529.335938 C 951.542969 529.195312 953.980469 529 956.378906 528.746094 Z M 940.359375 507.296875 C 939.132812 507.296875 937.914062 507.28125 936.703125 507.253906 L 936.703125 529.515625 C 937.679688 529.542969 938.65625 529.5625 939.632812 529.574219 C 939.875 529.574219 940.113281 529.578125 940.359375 529.578125 C 941.582031 529.578125 942.804688 529.566406 944.015625 529.535156 L 944.015625 507.257812 C 942.804688 507.285156 941.585938 507.296875 940.359375 507.296875 Z M 978.664062 458.355469 C 978.460938 458.46875 978.257812 458.578125 978.046875 458.695312 L 978.046875 480.207031 C 979.046875 479.597656 980.011719 478.972656 980.917969 478.335938 C 982.554688 477.1875 984.035156 475.992188 985.363281 474.761719 L 985.363281 453.984375 C 985.34375 454 985.328125 454.011719 985.3125 454.019531 C 985.21875 454.089844 985.121094 454.15625 985.03125 454.230469 C 984.75 454.4375 984.46875 454.648438 984.175781 454.851562 C 984.042969 454.949219 983.90625 455.042969 983.769531 455.140625 C 983.519531 455.316406 983.261719 455.496094 983 455.671875 C 982.847656 455.777344 982.6875 455.878906 982.53125 455.984375 C 982.285156 456.148438 982.035156 456.3125 981.78125 456.476562 C 981.613281 456.582031 981.445312 456.691406 981.273438 456.796875 C 981.023438 456.953125 980.773438 457.105469 980.515625 457.261719 C 980.339844 457.367188 980.160156 457.472656 979.980469 457.585938 C 979.722656 457.738281 979.464844 457.890625 979.203125 458.039062 C 979.027344 458.152344 978.847656 458.253906 978.664062 458.355469 Z M 973 461.226562 C 970.691406 462.28125 968.25 463.265625 965.683594 464.175781 L 965.683594 486.144531 C 966.683594 485.765625 967.675781 485.371094 968.65625 484.960938 C 970.160156 484.328125 971.609375 483.667969 972.996094 482.984375 L 972.996094 461.226562 Z M 960.636719 465.828125 C 958.277344 466.535156 955.839844 467.183594 953.324219 467.773438 L 953.324219 489.921875 C 954.378906 489.664062 955.429688 489.394531 956.480469 489.105469 L 956.625 489.074219 C 956.683594 489.0625 956.742188 489.046875 956.792969 489.03125 C 957.652344 488.792969 958.503906 488.550781 959.34375 488.292969 C 959.445312 488.261719 959.550781 488.230469 959.652344 488.199219 C 959.984375 488.097656 960.304688 487.992188 960.632812 487.886719 L 960.632812 465.828125 Z M 948.273438 468.839844 C 945.890625 469.292969 943.453125 469.695312 940.960938 470.035156 L 940.960938 492.273438 C 941.195312 492.238281 941.433594 492.207031 941.667969 492.171875 C 941.886719 492.140625 942.105469 492.105469 942.320312 492.074219 C 942.652344 492.023438 942.984375 491.972656 943.3125 491.917969 C 943.539062 491.882812 943.765625 491.847656 943.988281 491.808594 C 944.164062 491.777344 944.34375 491.746094 944.523438 491.71875 C 945.785156 491.507812 947.03125 491.273438 948.269531 491.027344 L 948.269531 468.839844 Z M 923.546875 493.679688 L 923.546875 471.402344 C 922.335938 471.429688 921.121094 471.445312 919.890625 471.445312 C 918.664062 471.445312 917.445312 471.433594 916.234375 471.402344 L 916.234375 493.679688 C 917.445312 493.707031 918.664062 493.722656 919.890625 493.722656 C 921.121094 493.722656 922.335938 493.710938 923.546875 493.679688 Z M 911.976562 526.769531 C 914.375 527.25 916.816406 527.667969 919.289062 528.027344 L 919.289062 505.890625 C 916.800781 505.550781 914.359375 505.148438 911.976562 504.695312 Z M 924.339844 506.488281 L 924.339844 528.664062 C 926.757812 528.929688 929.199219 529.136719 931.652344 529.285156 L 931.652344 507.0625 C 929.175781 506.925781 926.738281 506.730469 924.339844 506.488281 Z M 869.785156 504.480469 L 869.835938 504.566406 L 869.835938 489.878906 C 869.699219 489.824219 869.558594 489.769531 869.421875 489.710938 C 869.085938 489.574219 868.757812 489.425781 868.425781 489.28125 C 868.214844 489.1875 868 489.097656 867.789062 489.003906 C 867.597656 488.921875 867.402344 488.839844 867.210938 488.753906 L 867.210938 495.707031 C 867.210938 496.265625 867.242188 496.820312 867.304688 497.371094 C 867.320312 497.503906 867.339844 497.636719 867.355469 497.769531 C 867.371094 497.875 867.382812 497.980469 867.402344 498.082031 C 867.421875 498.214844 867.445312 498.34375 867.464844 498.476562 C 867.503906 498.667969 867.53125 498.855469 867.578125 499.046875 C 867.679688 499.460938 867.785156 499.851562 867.894531 500.222656 C 867.976562 500.476562 868.054688 500.726562 868.140625 500.984375 C 868.300781 501.457031 868.484375 501.90625 868.6875 502.363281 C 868.769531 502.539062 868.855469 502.722656 868.9375 502.894531 C 868.945312 502.898438 868.945312 502.90625 868.949219 502.910156 C 868.984375 502.988281 869.023438 503.0625 869.058594 503.136719 C 869.246094 503.507812 869.449219 503.886719 869.675781 504.289062 C 869.714844 504.355469 869.75 504.417969 869.785156 504.480469 Z M 886.457031 467.773438 C 883.941406 467.1875 881.503906 466.535156 879.144531 465.828125 L 879.144531 487.886719 L 879.71875 488.074219 L 882.117188 488.78125 C 882.132812 488.785156 882.148438 488.792969 882.160156 488.796875 C 882.292969 488.832031 882.421875 488.871094 882.554688 488.90625 C 883 489.03125 883.441406 489.152344 883.875 489.265625 C 883.929688 489.28125 883.980469 489.292969 884.03125 489.304688 C 884.285156 489.371094 884.539062 489.4375 884.789062 489.503906 C 885.152344 489.597656 885.515625 489.691406 885.882812 489.777344 C 886.074219 489.828125 886.269531 489.871094 886.460938 489.917969 L 886.460938 467.773438 Z M 877.164062 512.574219 C 877.441406 512.792969 877.71875 513.015625 878.003906 513.230469 C 878.113281 513.292969 878.207031 513.367188 878.296875 513.449219 L 879.542969 514.339844 C 880.007812 514.664062 880.511719 515 881.054688 515.347656 L 882.136719 516.027344 C 882.15625 516.039062 882.175781 516.046875 882.195312 516.0625 L 882.195312 494.546875 C 882.023438 494.449219 881.847656 494.355469 881.671875 494.257812 C 881.433594 494.125 881.199219 493.988281 880.964844 493.851562 C 880.789062 493.75 880.609375 493.648438 880.4375 493.546875 L 878.238281 492.882812 C 877.484375 492.648438 876.722656 492.402344 875.949219 492.144531 C 875.839844 492.113281 875.734375 492.082031 875.636719 492.039062 C 875.53125 492.003906 875.429688 491.96875 875.324219 491.933594 C 875.230469 491.902344 875.136719 491.867188 875.042969 491.835938 C 874.988281 491.816406 874.933594 491.800781 874.886719 491.78125 L 874.886719 510.546875 C 875.539062 511.199219 876.269531 511.851562 877.164062 512.574219 Z M 894.5625 521.902344 L 894.5625 500.027344 C 894.460938 499.992188 894.355469 499.957031 894.253906 499.917969 C 893.976562 499.816406 893.699219 499.714844 893.421875 499.613281 C 893.128906 499.503906 892.832031 499.394531 892.542969 499.285156 C 892.269531 499.179688 892.003906 499.074219 891.726562 498.96875 C 891.441406 498.855469 891.152344 498.742188 890.871094 498.632812 C 890.605469 498.523438 890.339844 498.414062 890.078125 498.304688 C 889.796875 498.1875 889.519531 498.074219 889.238281 497.953125 C 888.976562 497.84375 888.722656 497.730469 888.464844 497.617188 C 888.191406 497.5 887.914062 497.378906 887.644531 497.257812 C 887.511719 497.199219 887.382812 497.136719 887.25 497.074219 L 887.25 518.777344 C 889.570312 519.902344 892.011719 520.949219 894.5625 521.902344 Z M 898.820312 492.273438 L 898.820312 470.035156 C 896.332031 469.695312 893.890625 469.292969 891.507812 468.839844 L 891.507812 491.027344 C 891.804688 491.082031 892.101562 491.148438 892.394531 491.207031 C 892.429688 491.214844 892.46875 491.21875 892.503906 491.230469 C 893.394531 491.402344 894.296875 491.5625 895.203125 491.710938 C 895.421875 491.746094 895.632812 491.785156 895.847656 491.820312 C 896.03125 491.851562 896.210938 491.878906 896.394531 491.910156 C 896.769531 491.96875 897.140625 492.03125 897.515625 492.085938 C 897.691406 492.113281 897.871094 492.140625 898.046875 492.167969 C 898.308594 492.203125 898.5625 492.238281 898.820312 492.273438 Z M 866.78125 461.222656 L 866.78125 482.984375 C 866.851562 483.019531 866.921875 483.054688 866.992188 483.089844 C 867.109375 483.148438 867.21875 483.199219 867.335938 483.257812 C 868.601562 483.867188 869.941406 484.46875 871.351562 485.058594 C 872.25 485.433594 873.171875 485.789062 874.09375 486.140625 L 874.09375 464.171875 C 871.535156 463.261719 869.089844 462.277344 866.78125 461.222656 Z M 905.230469 503.222656 C 904.96875 503.15625 904.707031 503.089844 904.445312 503.015625 C 904.070312 502.921875 903.695312 502.828125 903.320312 502.730469 C 903.027344 502.652344 902.734375 502.570312 902.441406 502.492188 C 902.109375 502.398438 901.773438 502.308594 901.441406 502.21875 C 901.140625 502.132812 900.847656 502.042969 900.550781 501.957031 C 900.234375 501.863281 899.921875 501.773438 899.613281 501.683594 L 899.613281 523.632812 C 901.980469 524.375 904.421875 525.050781 906.925781 525.652344 L 906.925781 503.625 C 906.359375 503.492188 905.792969 503.359375 905.230469 503.222656 Z M 974.109375 488.054688 C 978.132812 486.988281 981.832031 485.742188 985.140625 484.335938 C 995.304688 480.015625 1001.5625 474.375 1001.5625 468.386719 C 1001.5625 466.535156 1000.957031 464.707031 999.816406 462.957031 C 999.328125 462.207031 998.746094 461.46875 998.074219 460.742188 C 998.074219 460.765625 998.070312 460.789062 998.070312 460.8125 C 998.066406 460.875 998.066406 460.9375 998.0625 461 C 998.054688 461.101562 998.042969 461.199219 998.039062 461.300781 C 998.035156 461.390625 998.027344 461.484375 998.015625 461.578125 C 998.007812 461.671875 998.003906 461.761719 997.996094 461.855469 C 997.984375 461.953125 997.972656 462.046875 997.964844 462.144531 C 997.949219 462.246094 997.9375 462.34375 997.921875 462.445312 C 997.886719 462.734375 997.84375 463.023438 997.796875 463.3125 C 997.78125 463.390625 997.769531 463.46875 997.75 463.550781 C 997.6875 463.875 997.625 464.199219 997.546875 464.527344 C 997.539062 464.566406 997.53125 464.601562 997.519531 464.640625 C 997.066406 466.550781 996.339844 468.414062 995.363281 470.222656 C 995.335938 470.273438 995.304688 470.328125 995.273438 470.382812 C 995.121094 470.664062 994.957031 470.945312 994.789062 471.230469 C 994.730469 471.328125 994.671875 471.425781 994.617188 471.515625 C 994.476562 471.742188 994.332031 471.96875 994.183594 472.195312 C 994.09375 472.328125 994.011719 472.464844 993.917969 472.597656 C 993.8125 472.75 993.695312 472.910156 993.585938 473.066406 C 992.484375 474.621094 991.199219 476.128906 989.734375 477.574219 C 989.675781 477.636719 989.621094 477.695312 989.558594 477.746094 C 987.859375 479.402344 985.941406 480.984375 983.820312 482.46875 C 981.652344 483.992188 979.28125 485.421875 976.734375 486.75 C 976.730469 486.753906 976.726562 486.753906 976.71875 486.757812 C 976.707031 486.761719 976.699219 486.769531 976.6875 486.777344 C 976.222656 487.019531 975.753906 487.257812 975.277344 487.492188 C 975.1875 487.539062 975.097656 487.582031 975.011719 487.621094 C 974.714844 487.757812 974.414062 487.910156 974.109375 488.054688 Z M 854.417969 474.789062 C 856.488281 476.703125 858.941406 478.523438 861.730469 480.21875 L 861.730469 458.695312 C 861.523438 458.578125 861.320312 458.46875 861.117188 458.355469 C 860.941406 458.253906 860.769531 458.15625 860.589844 458.054688 C 860.320312 457.898438 860.054688 457.742188 859.789062 457.589844 C 859.617188 457.488281 859.449219 457.386719 859.277344 457.28125 C 859.011719 457.121094 858.75 456.957031 858.496094 456.796875 C 858.335938 456.695312 858.171875 456.59375 858.011719 456.492188 C 857.746094 456.324219 857.488281 456.152344 857.230469 455.980469 C 857.085938 455.882812 856.9375 455.785156 856.792969 455.6875 C 856.519531 455.503906 856.25 455.316406 855.984375 455.125 C 855.859375 455.042969 855.734375 454.953125 855.617188 454.871094 C 855.308594 454.648438 855.007812 454.429688 854.707031 454.203125 C 854.628906 454.144531 854.554688 454.089844 854.480469 454.035156 C 854.460938 454.019531 854.441406 454.003906 854.417969 453.988281 Z M 862.753906 546.496094 C 864.824219 548.410156 867.277344 550.226562 870.0625 551.925781 L 870.0625 530.398438 C 869.863281 530.285156 869.664062 530.175781 869.464844 530.066406 C 869.269531 529.953125 869.082031 529.84375 868.890625 529.734375 C 868.636719 529.585938 868.390625 529.445312 868.144531 529.296875 C 867.957031 529.183594 867.773438 529.074219 867.589844 528.964844 C 867.34375 528.8125 867.09375 528.664062 866.851562 528.507812 C 866.675781 528.398438 866.503906 528.289062 866.332031 528.175781 C 866.082031 528.019531 865.835938 527.855469 865.59375 527.695312 C 865.433594 527.589844 865.269531 527.484375 865.113281 527.375 C 864.859375 527.203125 864.605469 527.027344 864.355469 526.851562 C 864.21875 526.753906 864.074219 526.65625 863.9375 526.558594 C 863.652344 526.355469 863.371094 526.148438 863.09375 525.941406 C 862.996094 525.867188 862.898438 525.796875 862.804688 525.726562 C 862.789062 525.714844 862.769531 525.699219 862.757812 525.691406 L 862.757812 546.496094 Z M 887.476562 537.527344 L 887.476562 559.59375 C 889.824219 560.335938 892.261719 561.011719 894.789062 561.625 L 894.789062 539.472656 C 892.273438 538.890625 889.835938 538.242188 887.476562 537.527344 Z M 899.84375 562.738281 C 902.214844 563.210938 904.65625 563.621094 907.15625 563.976562 L 907.15625 541.738281 C 904.667969 541.398438 902.226562 540.996094 899.84375 540.539062 Z M 912.207031 564.597656 C 914.601562 564.851562 917.039062 565.042969 919.519531 565.1875 L 919.519531 542.914062 C 917.046875 542.78125 914.605469 542.585938 912.207031 542.34375 Z M 936.929688 542.910156 L 936.929688 565.183594 C 939.40625 565.042969 941.847656 564.847656 944.242188 564.59375 L 944.242188 542.339844 C 941.84375 542.585938 939.402344 542.777344 936.929688 542.910156 Z M 949.292969 563.976562 C 951.789062 563.621094 954.230469 563.210938 956.609375 562.738281 L 956.609375 540.539062 C 954.222656 540.996094 951.789062 541.398438 949.292969 541.738281 Z M 961.65625 561.625 C 964.183594 561.015625 966.621094 560.335938 968.964844 559.59375 L 968.964844 537.539062 C 968.925781 537.550781 968.890625 537.558594 968.855469 537.574219 C 966.535156 538.265625 964.132812 538.898438 961.65625 539.472656 Z M 986.382812 530.398438 L 986.382812 551.925781 C 989.167969 550.226562 991.621094 548.410156 993.695312 546.496094 L 993.695312 525.695312 C 993.6875 525.707031 993.675781 525.714844 993.660156 525.722656 C 993.394531 525.921875 993.121094 526.121094 992.851562 526.316406 C 992.621094 526.484375 992.398438 526.652344 992.164062 526.816406 C 991.867188 527.023438 991.5625 527.226562 991.261719 527.429688 C 991.035156 527.578125 990.816406 527.730469 990.59375 527.878906 C 990.265625 528.09375 989.925781 528.304688 989.589844 528.515625 C 989.371094 528.648438 989.164062 528.785156 988.949219 528.917969 C 988.585938 529.140625 988.214844 529.359375 987.84375 529.574219 C 987.640625 529.695312 987.441406 529.8125 987.230469 529.933594 C 986.949219 530.085938 986.667969 530.242188 986.382812 530.398438 Z M 1002.488281 513.410156 C 1003.691406 512.511719 1004.808594 511.589844 1005.835938 510.644531 L 1005.835938 489.84375 C 1005.816406 489.859375 1005.792969 489.871094 1005.777344 489.890625 C 1005.703125 489.945312 1005.621094 490.003906 1005.546875 490.0625 C 1005.25 490.28125 1004.949219 490.507812 1004.640625 490.726562 C 1004.515625 490.8125 1004.394531 490.898438 1004.269531 490.984375 C 1004.003906 491.171875 1003.734375 491.363281 1003.460938 491.546875 C 1003.3125 491.644531 1003.167969 491.742188 1003.023438 491.839844 C 1002.761719 492.011719 1002.503906 492.179688 1002.238281 492.351562 C 1002.082031 492.453125 1001.921875 492.554688 1001.757812 492.65625 C 1001.496094 492.820312 1001.234375 492.980469 1000.96875 493.144531 C 1000.800781 493.246094 1000.632812 493.347656 1000.464844 493.449219 C 1000.199219 493.609375 999.925781 493.761719 999.65625 493.921875 C 999.484375 494.019531 999.316406 494.121094 999.144531 494.21875 C 998.9375 494.332031 998.726562 494.449219 998.519531 494.5625 L 998.519531 516.011719 C 999.808594 515.253906 1001.082031 514.460938 1002.40625 513.46875 C 1002.433594 513.433594 1002.460938 513.425781 1002.488281 513.410156 Z M 846.742188 432.527344 C 846.742188 435.273438 847.484375 437.957031 848.875 440.53125 C 849.992188 442.605469 851.53125 444.605469 853.449219 446.523438 C 853.601562 446.640625 853.738281 446.777344 853.859375 446.929688 C 856.839844 449.804688 860.671875 452.46875 865.203125 454.851562 C 865.339844 454.910156 865.472656 454.976562 865.597656 455.054688 C 866.210938 455.375 866.828125 455.6875 867.464844 455.992188 C 870.472656 457.4375 873.746094 458.761719 877.238281 459.941406 C 877.367188 459.972656 877.496094 460.015625 877.613281 460.066406 C 881.296875 461.292969 885.230469 462.371094 889.367188 463.261719 C 889.460938 463.277344 889.554688 463.296875 889.640625 463.320312 C 893.453125 464.136719 897.441406 464.800781 901.566406 465.304688 C 901.601562 465.308594 901.636719 465.3125 901.671875 465.320312 C 907.496094 466.019531 913.597656 466.398438 919.890625 466.398438 C 926.175781 466.398438 932.273438 466.019531 938.097656 465.324219 C 938.136719 465.320312 938.179688 465.3125 938.21875 465.308594 C 942.347656 464.808594 946.335938 464.140625 950.152344 463.324219 C 950.234375 463.300781 950.320312 463.285156 950.402344 463.269531 C 954.542969 462.375 958.472656 461.304688 962.160156 460.074219 C 962.285156 460.019531 962.410156 459.980469 962.542969 459.945312 C 966.035156 458.765625 969.308594 457.445312 972.3125 455.996094 C 972.949219 455.691406 973.574219 455.378906 974.1875 455.058594 C 974.308594 454.984375 974.4375 454.917969 974.570312 454.867188 C 979.105469 452.480469 982.9375 449.816406 985.917969 446.9375 C 986.039062 446.789062 986.175781 446.65625 986.324219 446.539062 C 988.734375 444.128906 990.554688 441.582031 991.683594 438.929688 C 992.570312 436.851562 993.039062 434.714844 993.039062 432.535156 C 993.039062 423.539062 985.117188 415.230469 972.3125 409.070312 C 958.949219 402.644531 940.414062 398.671875 919.890625 398.671875 C 899.359375 398.671875 880.828125 402.644531 867.464844 409.070312 C 854.667969 415.222656 846.742188 423.527344 846.742188 432.527344 Z M 846.742188 459.863281 C 846.742188 462.917969 847.65625 465.894531 849.363281 468.730469 L 849.363281 449.527344 C 849.28125 449.441406 849.199219 449.355469 849.117188 449.269531 C 848.917969 449.054688 848.71875 448.84375 848.527344 448.625 C 848.4375 448.523438 848.34375 448.421875 848.253906 448.316406 C 848.066406 448.101562 847.878906 447.882812 847.699219 447.667969 C 847.613281 447.566406 847.53125 447.464844 847.445312 447.367188 C 847.257812 447.140625 847.082031 446.910156 846.90625 446.679688 C 846.851562 446.609375 846.796875 446.542969 846.742188 446.472656 Z M 857.726562 495.316406 C 856 498.152344 855.078125 501.148438 855.078125 504.234375 C 855.078125 505.734375 855.304688 507.214844 855.726562 508.667969 C 857.859375 515.941406 865.132812 522.566406 875.800781 527.699219 C 889.164062 534.125 907.695312 538.097656 928.226562 538.097656 C 942.628906 538.097656 956.058594 536.136719 967.414062 532.738281 C 967.726562 532.648438 968.035156 532.550781 968.34375 532.453125 C 968.691406 532.34375 969.046875 532.234375 969.394531 532.125 C 969.722656 532.019531 970.046875 531.910156 970.371094 531.800781 C 970.632812 531.714844 970.898438 531.628906 971.160156 531.542969 C 969.242188 531.953125 967.382812 532.296875 965.558594 532.589844 C 963.496094 532.933594 961.394531 533.234375 959.261719 533.496094 C 959.210938 533.503906 959.164062 533.507812 959.113281 533.515625 C 953.714844 534.167969 948.101562 534.542969 942.324219 534.613281 C 942.320312 534.613281 942.320312 534.613281 942.316406 534.613281 C 941.667969 534.625 941.015625 534.628906 940.363281 534.628906 C 933.902344 534.628906 927.621094 534.238281 921.613281 533.515625 C 921.5625 533.507812 921.507812 533.5 921.457031 533.496094 C 918.78125 533.167969 916.160156 532.773438 913.601562 532.320312 C 899.023438 530.9375 886.277344 527.511719 877.191406 522.8125 C 867.664062 517.882812 861.976562 511.441406 861.976562 504.234375 C 861.976562 503.425781 862.054688 502.589844 862.214844 501.738281 L 862.214844 501.730469 C 862.316406 501.167969 862.460938 500.609375 862.632812 500.054688 C 862.488281 499.390625 862.378906 498.722656 862.300781 498.046875 C 862.300781 498.035156 862.296875 498.015625 862.296875 498.003906 C 862.296875 498 862.296875 497.988281 862.296875 497.984375 C 862.214844 497.238281 862.167969 496.480469 862.164062 495.726562 C 862.164062 495.722656 862.164062 495.71875 862.164062 495.714844 L 862.164062 489.871094 C 860.355469 491.613281 858.867188 493.4375 857.726562 495.316406 Z M 855.078125 531.5625 C 855.078125 534.621094 855.992188 537.59375 857.699219 540.4375 L 857.699219 521.234375 C 857.609375 521.144531 857.527344 521.054688 857.441406 520.960938 C 857.25 520.757812 857.058594 520.550781 856.871094 520.339844 C 856.773438 520.230469 856.679688 520.125 856.582031 520.015625 C 856.394531 519.808594 856.21875 519.59375 856.042969 519.382812 C 855.953125 519.277344 855.859375 519.164062 855.769531 519.058594 C 855.59375 518.84375 855.421875 518.621094 855.25 518.402344 C 855.191406 518.324219 855.128906 518.25 855.074219 518.175781 L 855.074219 531.5625 Z M 875.796875 555.023438 C 877.882812 556.027344 880.09375 556.972656 882.425781 557.851562 L 882.425781 535.875 C 879.863281 534.964844 877.421875 533.976562 875.113281 532.925781 L 875.113281 554.683594 C 875.339844 554.804688 875.566406 554.914062 875.796875 555.023438 Z M 931.882812 565.386719 L 931.882812 543.105469 C 930.671875 543.132812 929.453125 543.148438 928.226562 543.148438 C 927 543.148438 925.78125 543.136719 924.566406 543.105469 L 924.566406 565.378906 C 925.78125 565.40625 927 565.425781 928.226562 565.425781 C 929.449219 565.429688 930.671875 565.410156 931.882812 565.386719 Z M 980.648438 555.023438 C 980.878906 554.914062 981.105469 554.800781 981.328125 554.6875 L 981.328125 532.929688 C 980.878906 533.136719 980.417969 533.339844 979.953125 533.539062 C 979.867188 533.582031 979.777344 533.621094 979.6875 533.660156 C 979.039062 533.941406 978.375 534.21875 977.707031 534.488281 C 977.691406 534.496094 977.667969 534.503906 977.648438 534.507812 C 976.46875 534.980469 975.257812 535.4375 974.019531 535.878906 L 974.019531 557.851562 C 976.347656 556.976562 978.5625 556.027344 980.648438 555.023438 Z M 1001.371094 520.230469 C 1000.554688 520.757812 999.644531 521.277344 998.746094 521.765625 L 998.746094 540.4375 C 1000.457031 537.597656 1001.371094 534.621094 1001.371094 531.5625 Z M 1013.359375 482.515625 C 1013.179688 482.753906 1012.988281 482.992188 1012.796875 483.226562 C 1012.71875 483.324219 1012.640625 483.417969 1012.558594 483.511719 C 1012.375 483.738281 1012.183594 483.960938 1011.988281 484.179688 C 1011.902344 484.277344 1011.8125 484.378906 1011.722656 484.476562 C 1011.527344 484.695312 1011.332031 484.910156 1011.125 485.128906 C 1011.046875 485.210938 1010.964844 485.300781 1010.882812 485.382812 L 1010.882812 504.585938 C 1012.589844 501.75 1013.511719 498.769531 1013.511719 495.714844 L 1013.511719 482.328125 C 1013.460938 482.390625 1013.410156 482.453125 1013.359375 482.515625 Z M 1013.359375 482.515625 " fill-opacity="1" fill-rule="nonzero"/></g></svg>