<svg xmlns="http://www.w3.org/2000/svg" xmlns:xlink="http://www.w3.org/1999/xlink" width="500" zoomAndPan="magnify" viewBox="0 0 375 374.999991" height="500" preserveAspectRatio="xMidYMid meet" version="1.0"><defs><g/><clipPath id="2cc00e0daa"><rect x="0" width="188" y="0" height="106"/></clipPath><clipPath id="6078f90707"><path d="M 135 24.789062 L 270 24.789062 L 270 187 L 135 187 Z M 135 24.789062 " clip-rule="nonzero"/></clipPath><clipPath id="61ac5e20bf"><path d="M 107 75 L 270 75 L 270 247.539062 L 107 247.539062 Z M 107 75 " clip-rule="nonzero"/></clipPath></defs><g transform="matrix(1, 0, 0, 1, 98, 264)"><g clip-path="url(#2cc00e0daa)"><g fill="#0061ab" fill-opacity="1"><g transform="translate(0.998642, 79.929717)"><g><path d="M 48.609375 -2.671875 C 48.953125 -2.160156 49.023438 -1.585938 48.828125 -0.953125 C 48.628906 -0.316406 48.210938 0 47.578125 0 L 37.734375 0 C 36.804688 0 36.097656 -0.128906 35.609375 -0.390625 C 35.128906 -0.648438 34.570312 -1.328125 33.9375 -2.421875 L 25.390625 -17.78125 L 16.75 -2.421875 C 16.175781 -1.328125 15.644531 -0.648438 15.15625 -0.390625 C 14.664062 -0.128906 13.929688 0 12.953125 0 L 3.109375 0 C 2.472656 0 2.050781 -0.316406 1.84375 -0.953125 C 1.644531 -1.585938 1.722656 -2.160156 2.078125 -2.671875 L 17.4375 -29.09375 L 1.8125 -54.390625 C 1.582031 -54.859375 1.550781 -55.378906 1.71875 -55.953125 C 1.894531 -56.523438 2.359375 -56.8125 3.109375 -56.8125 L 13.296875 -56.8125 C 14.097656 -56.8125 14.726562 -56.625 15.1875 -56.25 C 15.65625 -55.875 16.175781 -55.226562 16.75 -54.3125 L 25.390625 -40.40625 L 33.9375 -54.3125 C 34.570312 -55.226562 35.101562 -55.875 35.53125 -56.25 C 35.957031 -56.625 36.601562 -56.8125 37.46875 -56.8125 L 47.578125 -56.8125 C 48.328125 -56.8125 48.800781 -56.523438 49 -55.953125 C 49.195312 -55.378906 49.15625 -54.859375 48.875 -54.390625 L 33.328125 -29.09375 Z M 48.609375 -2.671875 "/></g></g></g><g fill="#0061ab" fill-opacity="1"><g transform="translate(60.222994, 79.929717)"><g><path d="M 50.171875 -16.84375 C 50.171875 -14.070312 49.503906 -11.5625 48.171875 -9.3125 C 46.847656 -7.070312 45.109375 -5.160156 42.953125 -3.578125 C 40.796875 -1.992188 38.394531 -0.785156 35.75 0.046875 C 33.101562 0.878906 30.425781 1.296875 27.71875 1.296875 C 25.125 1.296875 22.472656 0.90625 19.765625 0.125 C 17.066406 -0.644531 14.566406 -1.820312 12.265625 -3.40625 C 9.960938 -4.988281 8.101562 -7.003906 6.6875 -9.453125 C 5.28125 -11.898438 4.578125 -14.820312 4.578125 -18.21875 L 4.578125 -38.59375 C 4.578125 -41.988281 5.28125 -44.910156 6.6875 -47.359375 C 8.101562 -49.804688 9.960938 -51.820312 12.265625 -53.40625 C 14.566406 -54.988281 17.066406 -56.164062 19.765625 -56.9375 C 22.472656 -57.71875 25.125 -58.109375 27.71875 -58.109375 C 31.28125 -58.109375 34.703125 -57.503906 37.984375 -56.296875 C 41.265625 -55.085938 44.023438 -53.273438 46.265625 -50.859375 C 48.515625 -48.441406 49.816406 -45.390625 50.171875 -41.703125 C 50.171875 -40.671875 49.96875 -39.992188 49.5625 -39.671875 C 49.15625 -39.359375 48.460938 -39.203125 47.484375 -39.203125 L 39.203125 -39.203125 C 38.273438 -39.203125 37.695312 -39.515625 37.46875 -40.140625 C 37.238281 -40.773438 36.953125 -41.351562 36.609375 -41.875 C 35.691406 -43.3125 34.566406 -44.359375 33.234375 -45.015625 C 31.910156 -45.679688 30.070312 -46.015625 27.71875 -46.015625 C 24.894531 -46.015625 22.585938 -45.25 20.796875 -43.71875 C 19.015625 -42.195312 18.125 -40.085938 18.125 -37.390625 L 18.125 -19.421875 C 18.125 -16.660156 19.015625 -14.53125 20.796875 -13.03125 C 22.585938 -11.539062 24.894531 -10.796875 27.71875 -10.796875 C 30.070312 -10.796875 32.082031 -11.253906 33.75 -12.171875 C 35.425781 -13.097656 36.4375 -14.597656 36.78125 -16.671875 C 36.894531 -17.523438 37.082031 -18.253906 37.34375 -18.859375 C 37.601562 -19.460938 38.191406 -19.765625 39.109375 -19.765625 L 47.578125 -19.765625 C 49.304688 -19.765625 50.171875 -18.789062 50.171875 -16.84375 Z M 50.171875 -16.84375 "/></g></g></g><g fill="#0061ab" fill-opacity="1"><g transform="translate(123.418522, 79.929717)"><g><path d="M 50.171875 -16.84375 C 50.171875 -14.070312 49.503906 -11.5625 48.171875 -9.3125 C 46.847656 -7.070312 45.109375 -5.160156 42.953125 -3.578125 C 40.796875 -1.992188 38.394531 -0.785156 35.75 0.046875 C 33.101562 0.878906 30.425781 1.296875 27.71875 1.296875 C 25.125 1.296875 22.472656 0.90625 19.765625 0.125 C 17.066406 -0.644531 14.566406 -1.820312 12.265625 -3.40625 C 9.960938 -4.988281 8.101562 -7.003906 6.6875 -9.453125 C 5.28125 -11.898438 4.578125 -14.820312 4.578125 -18.21875 L 4.578125 -38.59375 C 4.578125 -41.988281 5.28125 -44.910156 6.6875 -47.359375 C 8.101562 -49.804688 9.960938 -51.820312 12.265625 -53.40625 C 14.566406 -54.988281 17.066406 -56.164062 19.765625 -56.9375 C 22.472656 -57.71875 25.125 -58.109375 27.71875 -58.109375 C 31.28125 -58.109375 34.703125 -57.503906 37.984375 -56.296875 C 41.265625 -55.085938 44.023438 -53.273438 46.265625 -50.859375 C 48.515625 -48.441406 49.816406 -45.390625 50.171875 -41.703125 C 50.171875 -40.671875 49.96875 -39.992188 49.5625 -39.671875 C 49.15625 -39.359375 48.460938 -39.203125 47.484375 -39.203125 L 39.203125 -39.203125 C 38.273438 -39.203125 37.695312 -39.515625 37.46875 -40.140625 C 37.238281 -40.773438 36.953125 -41.351562 36.609375 -41.875 C 35.691406 -43.3125 34.566406 -44.359375 33.234375 -45.015625 C 31.910156 -45.679688 30.070312 -46.015625 27.71875 -46.015625 C 24.894531 -46.015625 22.585938 -45.25 20.796875 -43.71875 C 19.015625 -42.195312 18.125 -40.085938 18.125 -37.390625 L 18.125 -19.421875 C 18.125 -16.660156 19.015625 -14.53125 20.796875 -13.03125 C 22.585938 -11.539062 24.894531 -10.796875 27.71875 -10.796875 C 30.070312 -10.796875 32.082031 -11.253906 33.75 -12.171875 C 35.425781 -13.097656 36.4375 -14.597656 36.78125 -16.671875 C 36.894531 -17.523438 37.082031 -18.253906 37.34375 -18.859375 C 37.601562 -19.460938 38.191406 -19.765625 39.109375 -19.765625 L 47.578125 -19.765625 C 49.304688 -19.765625 50.171875 -18.789062 50.171875 -16.84375 Z M 50.171875 -16.84375 "/></g></g></g></g></g><g clip-path="url(#6078f90707)"><path fill="#4daacf" d="M 204.699219 120.203125 C 204.65625 117.527344 203.851562 115.207031 202.246094 113.242188 C 200.636719 111.277344 198.539062 110.164062 195.953125 109.851562 C 193.71875 109.582031 191.890625 109.984375 190.417969 111.054688 C 188.945312 112.125 187.605469 114.449219 186.402344 118.019531 Z M 161.855469 119.042969 C 161.945312 121.722656 162.703125 123.953125 164.128906 125.648438 C 165.515625 127.390625 167.300781 128.371094 169.398438 128.640625 C 171.496094 128.90625 173.324219 128.460938 174.84375 127.34375 C 176.359375 126.230469 177.652344 124.132812 178.679688 121.097656 Z M 215.589844 125.648438 L 209.429688 124.890625 C 208.714844 128.238281 207.734375 130.960938 206.574219 132.96875 C 205.367188 134.976562 203.582031 136.628906 201.21875 137.921875 C 198.851562 139.21875 196.085938 139.796875 192.871094 139.664062 L 192.335938 132.65625 C 195.683594 132.523438 198.226562 131.898438 199.921875 130.738281 C 202.289062 129.085938 203.761719 126.898438 204.253906 124.265625 L 184.972656 121.902344 C 184.035156 124.621094 182.695312 127.390625 180.910156 130.113281 C 179.617188 132.164062 177.921875 133.636719 175.914062 134.574219 C 173.859375 135.511719 171.628906 135.824219 169.175781 135.558594 C 164.800781 135.023438 161.453125 132.878906 159.085938 129.085938 C 157.480469 126.585938 156.722656 123.015625 156.765625 118.417969 L 153.820312 118.0625 L 154.222656 114 L 157.167969 114.359375 C 157.882812 110.429688 159.265625 107.441406 161.230469 105.296875 C 163.773438 102.574219 166.988281 101.191406 170.960938 101.058594 L 171.226562 108.199219 C 168.773438 108.289062 166.808594 108.914062 165.378906 110.027344 C 163.953125 111.144531 162.925781 112.796875 162.300781 114.984375 L 179.972656 117.167969 C 181.089844 113.824219 181.9375 111.636719 182.472656 110.566406 C 183.5 108.554688 184.707031 106.949219 186.042969 105.746094 C 187.382812 104.539062 188.898438 103.691406 190.640625 103.15625 C 192.382812 102.664062 194.210938 102.488281 196.128906 102.753906 C 200.371094 103.289062 203.761719 105.207031 206.304688 108.554688 C 208.851562 111.902344 209.964844 116.007812 209.699219 120.785156 L 215.902344 121.542969 Z M 216.078125 179.429688 C 216.125 145.507812 217.953125 111.5 230.984375 73.878906 C 232.058594 71.023438 233.21875 68.167969 234.46875 65.265625 C 242.945312 67.273438 251.558594 68.746094 260.398438 69.328125 C 241.519531 100.96875 231.566406 129.84375 225.273438 157.78125 C 231.34375 134.796875 239.910156 111.1875 253.96875 85.929688 C 258.96875 86.820312 264.058594 87.445312 269.1875 87.757812 C 254.371094 112.261719 244.867188 135.109375 238.351562 157.113281 C 233.261719 166.53125 225.496094 174.296875 216.078125 179.429688 Z M 137.039062 24.695312 C 170.648438 33.578125 203.628906 49.152344 237.902344 51.296875 C 216.570312 98.46875 214.160156 139.484375 214.207031 180.410156 C 206.839844 184.070312 198.539062 186.078125 189.792969 186.078125 C 176.894531 186.078125 164.980469 181.660156 155.605469 174.207031 C 153.195312 149.75 150.296875 125.382812 148.554688 100.835938 C 147.125 80.75 146.414062 60.3125 147.664062 40.140625 C 158.328125 43.308594 203.136719 57.367188 225.230469 58.75 C 197.648438 54.777344 171.671875 43.976562 145.027344 36.03125 C 143.78125 56.207031 144.492188 76.601562 145.921875 96.730469 C 147.707031 121.945312 150.742188 147.027344 153.195312 172.199219 C 149.359375 168.761719 145.964844 164.835938 143.199219 160.460938 C 138.601562 116.457031 132.800781 68.746094 137.039062 24.695312 Z M 137.039062 24.695312 " fill-opacity="1" fill-rule="evenodd"/></g><g clip-path="url(#61ac5e20bf)"><path fill="#0061ab" d="M 133.46875 111.902344 C 131.015625 118.375 129.675781 125.425781 129.675781 132.746094 C 129.675781 165.324219 156.097656 191.703125 188.632812 191.703125 C 217.238281 191.703125 241.074219 171.351562 246.472656 144.347656 C 250.085938 135.914062 258.253906 114.757812 264.636719 103.914062 C 275.660156 132.925781 269.5 166.976562 246.160156 190.363281 L 188.675781 247.84375 L 131.195312 190.363281 C 99.328125 158.496094 99.550781 106.996094 131.195312 75.394531 C 130.078125 89.054688 133.292969 106.816406 133.46875 111.902344 Z M 133.46875 111.902344 " fill-opacity="1" fill-rule="evenodd"/></g><path fill="#0061ab" d="M 188.675781 229.234375 L 220.410156 197.503906 C 210.8125 202.1875 200.058594 204.867188 188.675781 204.867188 C 177.296875 204.867188 166.496094 202.234375 156.945312 197.503906 Z M 188.675781 229.234375 " fill-opacity="1" fill-rule="evenodd"/></svg>